<?xml version="1.0" encoding="UTF-8"?>
<svg width="44px" height="44px" viewBox="0 0 44 44" version="1.1" xmlns="http://www.w3.org/2000/svg" xmlns:xlink="http://www.w3.org/1999/xlink">
    <title>Group</title>
    <defs>
        <filter id="filter-1">
            <feColorMatrix in="SourceGraphic" type="matrix" values="0 0 0 0 0.968627 0 0 0 0 0.968627 0 0 0 0 0.968627 0 0 0 1.000000 0"></feColorMatrix>
        </filter>
    </defs>
    <g id="A-WLAN" stroke="none" stroke-width="1" fill="none" fill-rule="evenodd">
        <g id="a02-1设置-标题与结构示意(暗色）" transform="translate(-1206.000000, -2267.000000)">
            <g id="Group" transform="translate(1206.000000, 2267.000000)">
                <rect id="矩形" fill="#C953EB" x="0" y="0" width="44" height="44" rx="14"></rect>
                <g filter="url(#filter-1)">
                    <g transform="translate(6.000000, 6.000000)">
                        <path d="M8.69066669,23.0000001 L6.28933335,23.0000001 C4.81600001,23.0000001 3.62266667,21.8066667 3.62266667,20.3333334 L3.62266667,6.64400002 C3.62266667,5.17066668 4.81600001,3.97733334 6.28933335,3.97733334 L26.3786668,3.97733334 C27.8520001,3.97733334 29.0453334,5.17066668 29.0453334,6.64400002 L29.0453334,20.3333334 C29.0453334,21.8066667 27.8520001,23.0000001 26.3786668,23.0000001 L24.7986668,23.0000001" id="Path" stroke="#F7F7F7" stroke-width="2" stroke-linecap="round" stroke-linejoin="round"></path>
                        <path d="M17.1320001,17.6666667 L17.1320001,11.6666667 C17.1320001,10.5626667 16.2360001,9.66666669 15.1320001,9.66666669 L15.1320001,9.66666669 C14.028,9.66666669 13.132,10.5626667 13.132,11.6666667 L13.132,15 L13.132,21.6666667 L11.9306667,20.4653334 C11.1213334,19.6560001 9.80933336,19.6560001 9.00000003,20.4653334 L9.00000003,20.4653334 C8.30133336,21.1640001 8.19333335,22.2586667 8.74133336,23.0800001 L12.34,28.4786668 C12.8346667,29.2213334 13.668,29.6666667 14.5586667,29.6666667 L21.6093334,29.6666667 C22.9546667,29.6666667 24.0880001,28.6653334 24.2560001,27.3306668 L24.9786668,21.5480001 C25.1560001,20.1253334 24.1773334,18.8160001 22.7626667,18.5853334 L17.1320001,17.6666667 L17.1320001,17.6666667 Z" id="Path" stroke="#F7F7F7" stroke-width="2" stroke-linecap="round" stroke-linejoin="round"></path>
                        <polygon id="Path" points="0.333333322 0.333333322 32.3333335 0.333333322 32.3333335 32.3333335 0.333333322 32.3333335"></polygon>
                    </g>
                </g>
            </g>
        </g>
    </g>
</svg>