<?xml version="1.0" encoding="UTF-8"?>
<svg width="44px" height="44px" viewBox="0 0 44 44" version="1.1" xmlns="http://www.w3.org/2000/svg" xmlns:xlink="http://www.w3.org/1999/xlink">
    <title>Content, Edit/Documents 2</title>
    <g id="A-WLAN" stroke="none" stroke-width="1" fill="none" fill-rule="evenodd">
        <g id="a02-1设置-标题与结构示意(暗色）" transform="translate(-1144.000000, -2267.000000)">
            <g id="Content,-Edit/Documents-2" transform="translate(1144.000000, 2267.000000)">
                <rect id="矩形" fill="#F78500" x="0" y="0" width="44" height="44" rx="14"></rect>
                <g id="Group" transform="translate(6.000000, 6.000000)">
                    <polygon id="Path" points="0 0 32.0000001 0 32.0000001 32.0000001 0 32.0000001"></polygon>
                    <path d="M23.8920001,24 L8.10800003,24 C6.39200003,24 5.00000002,22.6093334 5.00000002,20.8920001 L5.00000002,11.108 C5.00000002,9.39066671 6.39066669,8.00000003 8.10800003,8.00000003 L23.8933334,8.00000003 C25.6093334,8.00000003 27.0013334,9.39066671 27.0013334,11.108 L27.0013334,20.8933334 C27,22.6093334 25.6093334,24 23.8920001,24 Z" id="Path" stroke="#F7F7F7" stroke-width="2" stroke-linecap="round" stroke-linejoin="round"></path>
                    <path d="M22.5466668,14.0600001 C22.6800001,14.0600001 22.7893334,13.9520001 22.7880001,13.8173334 C22.7880001,13.6840001 22.6800001,13.5746667 22.5453334,13.5746667 C22.4106668,13.5746667 22.3026668,13.6826667 22.3026668,13.8173334 C22.3026668,13.9520001 22.4120001,14.0600001 22.5466668,14.0600001" id="Path" stroke="#F7F7F7" stroke-width="2" stroke-linecap="round" stroke-linejoin="round"></path>
                    <path d="M22.5466668,18.4240001 C22.6800001,18.4240001 22.7893334,18.3160001 22.7880001,18.1813334 C22.7880001,18.0480001 22.6800001,17.9386667 22.5453334,17.9386667 C22.4106668,17.9386667 22.3026668,18.0466667 22.3026668,18.1813334 C22.3026668,18.3160001 22.4120001,18.4240001 22.5466668,18.4240001" id="Path" stroke="#F7F7F7" stroke-width="2" stroke-linecap="round" stroke-linejoin="round"></path>
                    <line x1="13.6400001" y1="18.1866667" x2="18.3600001" y2="18.1866667" id="Path" stroke="#F7F7F7" stroke-width="2" stroke-linecap="round" stroke-linejoin="round"></line>
                    <path d="M18.1826667,14.0600001 C18.3160001,14.0600001 18.4253334,13.9520001 18.4240001,13.8173334 C18.4240001,13.6840001 18.3160001,13.5746667 18.1813334,13.5746667 C18.0480001,13.5746667 17.9386667,13.6826667 17.9386667,13.8173334 C17.9400001,13.9520001 18.0480001,14.0600001 18.1826667,14.0600001" id="Path" stroke="#F7F7F7" stroke-width="2" stroke-linecap="round" stroke-linejoin="round"></path>
                    <path d="M13.8186667,14.0600001 C13.9520001,14.0600001 14.0613334,13.9520001 14.0600001,13.8173334 C14.0600001,13.6840001 13.9520001,13.5746667 13.8173334,13.5746667 C13.6840001,13.5746667 13.5746667,13.6826667 13.5746667,13.8173334 C13.5760001,13.9520001 13.6840001,14.0600001 13.8186667,14.0600001" id="Path" stroke="#F7F7F7" stroke-width="2" stroke-linecap="round" stroke-linejoin="round"></path>
                    <path d="M9.45600004,14.0600001 C9.58933337,14.0600001 9.69866671,13.9520001 9.69733337,13.8173334 C9.69733337,13.6840001 9.58933337,13.5746667 9.45466671,13.5746667 C9.32000004,13.5746667 9.21200004,13.6826667 9.21200004,13.8173334 C9.21200004,13.9520001 9.32133337,14.0600001 9.45600004,14.0600001" id="Path" stroke="#F7F7F7" stroke-width="2" stroke-linecap="round" stroke-linejoin="round"></path>
                    <path d="M9.45600004,18.4240001 C9.58933337,18.4240001 9.69866671,18.3160001 9.69733337,18.1813334 C9.69733337,18.0480001 9.58933337,17.9386667 9.45466671,17.9386667 C9.32000004,17.9386667 9.21200004,18.0466667 9.21200004,18.1813334 C9.21200004,18.3160001 9.32133337,18.4240001 9.45600004,18.4240001" id="Path" stroke="#F7F7F7" stroke-width="2" stroke-linecap="round" stroke-linejoin="round"></path>
                </g>
            </g>
        </g>
    </g>
</svg>