<?xml version="1.0" encoding="UTF-8"?>
<svg width="44px" height="44px" viewBox="0 0 44 44" version="1.1" xmlns="http://www.w3.org/2000/svg" xmlns:xlink="http://www.w3.org/1999/xlink">
    <title>编组 7</title>
    <g id="A-WLAN" stroke="none" stroke-width="1" fill="none" fill-rule="evenodd">
        <g id="a02-1设置-标题与结构示意(暗色）" transform="translate(-1329.000000, -2267.000000)">
            <g id="编组-7" transform="translate(1329.000000, 2267.000000)">
                <rect id="矩形" fill="#6236FF" x="0" y="0" width="44" height="44" rx="14"></rect>
                <g id="Group" transform="translate(5.993333, 6.993333)">
                    <path d="M16.0066667,28.0116667 L16.0066667,28.0116667 C11.5920205,27.998482 8.01651802,24.4229795 8.00333333,20.0083333 L8.00333333,12.005 C8.01651802,7.59035386 11.5920205,4.01485136 16.0066667,4.00166667 L16.0066667,4.00166667 C20.4213128,4.01485136 23.9968153,7.59035386 24.01,12.005 L24.01,20.0083333 C23.9968153,24.4229795 20.4213128,27.998482 16.0066667,28.0116667 L16.0066667,28.0116667 Z" id="Path" stroke="#F7F7F7" stroke-width="2" stroke-linecap="round" stroke-linejoin="round"></path>
                    <line x1="16.0066667" y1="4.00166667" x2="16.0066667" y2="13.3388889" id="Path" stroke="#F7F7F7" stroke-width="2" stroke-linecap="round" stroke-linejoin="round"></line>
                    <line x1="8.00333333" y1="13.3388889" x2="24.01" y2="13.3388889" id="Path" stroke="#F7F7F7" stroke-width="2" stroke-linecap="round" stroke-linejoin="round"></line>
                    <polygon id="Path" points="0 0 32.0133333 0 32.0133333 32.0133333 0 32.0133333"></polygon>
                </g>
            </g>
        </g>
    </g>
</svg>