<?xml version="1.0" encoding="UTF-8"?>
<svg width="44px" height="44px" viewBox="0 0 44 44" version="1.1" xmlns="http://www.w3.org/2000/svg" xmlns:xlink="http://www.w3.org/1999/xlink">
    <title>Content, Edit/Documents 2</title>
    <g id="A-WLAN" stroke="none" stroke-width="1" fill="none" fill-rule="evenodd">
        <g id="a02-1设置-标题与结构示意(暗色）" transform="translate(-1082.000000, -2267.000000)">
            <g id="Content,-Edit/Documents-2" transform="translate(1082.000000, 2267.000000)">
                <rect id="矩形" fill="#0091FF" x="0" y="0" width="44" height="44" rx="14"></rect>
                <g id="Group" stroke-linecap="round" stroke-linejoin="round" transform="translate(10.000000, 10.000000)" stroke="#F7F7F7" stroke-width="2">
                    <line x1="24.0000001" y1="18.6666667" x2="0" y2="18.6666667" id="Path"></line>
                    <path d="M16.6666667,13.3333334 L7.33333336,13.3333334 C5.86000002,13.3333334 4.66666669,12.1400001 4.66666669,10.6666667 L4.66666669,8.00000003 C4.66666669,6.52666669 5.86000002,5.33333336 7.33333336,5.33333336 L16.6666667,5.33333336 C18.1400001,5.33333336 19.3333334,6.52666669 19.3333334,8.00000003 L19.3333334,10.6666667 C19.3333334,12.1400001 18.1400001,13.3333334 16.6666667,13.3333334 Z" id="Path"></path>
                    <path d="M20,24 L4,24 C1.79066667,24 0,22.2093334 0,20 L0,4 C0,1.79066667 1.79066667,0 4,0 L20,0 C22.2093334,0 24,1.79066667 24,4 L24,20 C24,22.2093334 22.2093334,24 20,24 Z" id="Path"></path>
                </g>
                <polygon id="Path" points="38.0000001 38.0000001 5.99999993 38.0000001 5.99999993 5.99999993 38.0000001 5.99999993"></polygon>
            </g>
        </g>
    </g>
</svg>