<?xml version="1.0" encoding="UTF-8"?>
<svg width="44px" height="44px" viewBox="0 0 44 44" version="1.1" xmlns="http://www.w3.org/2000/svg" xmlns:xlink="http://www.w3.org/1999/xlink">
    <title>编组</title>
    <defs>
        <filter id="filter-1">
            <feColorMatrix in="SourceGraphic" type="matrix" values="0 0 0 0 0.968627 0 0 0 0 0.968627 0 0 0 0 0.968627 0 0 0 1.000000 0"></feColorMatrix>
        </filter>
    </defs>
    <g id="A-WLAN" stroke="none" stroke-width="1" fill="none" fill-rule="evenodd">
        <g id="a02-1设置-标题与结构示意(暗色）" transform="translate(-400.000000, -2267.000000)">
            <g id="Content,-Edit/Documents" transform="translate(400.000000, 2267.000000)">
                <rect id="矩形" fill="#2EB093" x="0" y="0" width="44" height="44" rx="14"></rect>
                <g filter="url(#filter-1)" id="Group">
                    <g transform="translate(6.000000, 6.000000)">
                        <polygon id="Path" points="0 0 32.0000001 0 32.0000001 32.0000001 0 32.0000001"></polygon>
                        <path d="M21.3333334,28 L10.6666667,28 C6.98533335,28 4,25.0146668 4,21.3333334 L4,10.6666667 C4,6.98533335 6.98533335,4 10.6666667,4 L21.3333334,4 C25.0146668,4 28,6.98533335 28,10.6666667 L28,21.3333334 C28,25.0146668 25.0146668,28 21.3333334,28 Z" id="Path" stroke="#F7F7F7" stroke-width="2" stroke-linecap="round" stroke-linejoin="round"></path>
                        <path d="M9.25634766,20.1159668 C9.44189453,20.1159668 9.59883626,20.0788574 9.72717285,20.0046387 C9.85550944,19.9304199 9.95833333,19.8353271 10.0356445,19.7193604 C10.1129557,19.6033936 10.1809896,19.4688721 10.2397461,19.3157959 C10.2985026,19.1627197 10.3572591,19.0011393 10.4160156,18.8310547 L10.4160156,18.8310547 L12.0627441,14.387207 C12.0905762,14.3068034 12.1184082,14.2287191 12.1462402,14.1529541 C12.1740723,14.0771891 12.1972656,13.9998779 12.2158203,13.9210205 C12.234375,13.8421631 12.2436523,13.7687174 12.2436523,13.7006836 C12.2436523,13.6017253 12.2150472,13.50354 12.1578369,13.4061279 C12.1006266,13.3087158 12.0217692,13.2306315 11.9212646,13.171875 C11.8207601,13.1131185 11.7117513,13.0837402 11.5942383,13.0837402 C11.433431,13.0837402 11.3066406,13.1216227 11.2138672,13.1973877 C11.1210938,13.2731527 11.0546061,13.358195 11.0144043,13.4525146 C10.9742025,13.5468343 10.9138997,13.7145996 10.8334961,13.9558105 L10.8334961,13.9558105 L9.28881836,18.5480957 L7.7487793,13.9882812 C7.64672852,13.6728516 7.54699707,13.4432373 7.44958496,13.2994385 C7.35217285,13.1556396 7.18595378,13.0837402 6.95092773,13.0837402 C6.75919596,13.0837402 6.5999349,13.1486816 6.47314453,13.2785645 C6.34635417,13.4084473 6.28295898,13.5522461 6.28295898,13.7099609 C6.28295898,13.7718099 6.29300944,13.8475749 6.31311035,13.9372559 C6.33321126,14.0269368 6.35795085,14.1104329 6.3873291,14.1877441 C6.41670736,14.2650553 6.4453125,14.3439128 6.47314453,14.4243164 L6.47314453,14.4243164 L8.09204102,18.8310547 C8.15079753,19.0011393 8.20955404,19.1619466 8.26831055,19.3134766 C8.32706706,19.4650065 8.39587402,19.6003011 8.47473145,19.7193604 C8.55358887,19.8384196 8.65718587,19.9342855 8.78552246,20.006958 C8.91385905,20.0796305 9.07080078,20.1159668 9.25634766,20.1159668 Z M14.0913811,20.1159668 C14.2892978,20.1159668 14.4531975,20.0448405 14.5830804,19.9025879 C14.7129632,19.7603353 14.7779046,19.5515951 14.7779046,19.2763672 L14.7779046,19.2763672 L14.7779046,17.3513184 L16.0396233,17.3513184 C16.8838616,17.3513184 17.5193597,17.1727295 17.9461175,16.8155518 C18.3728753,16.458374 18.5862542,15.933431 18.5862542,15.2407227 C18.5862542,14.9160156 18.5336826,14.6237793 18.4285393,14.3640137 C18.3233961,14.104248 18.1695468,13.8846842 17.9669915,13.7053223 C17.7644362,13.5259603 17.5239983,13.3976237 17.245678,13.3203125 C16.9642653,13.2399089 16.562247,13.199707 16.0396233,13.199707 L16.0396233,13.199707 L14.2722893,13.199707 C13.9692294,13.199707 13.7481194,13.2646484 13.6089593,13.3945312 C13.4697991,13.5244141 13.400219,13.7408854 13.400219,14.0439453 L13.400219,14.0439453 L13.400219,19.2856445 C13.400219,19.5577799 13.4636142,19.7642008 13.5904046,19.9049072 C13.7171949,20.0456136 13.8841871,20.1159668 14.0913811,20.1159668 Z M15.705639,16.3122559 L14.7779046,16.3122559 L14.7779046,14.2341309 L15.705639,14.2341309 C16.3210361,14.2341309 16.727693,14.3346354 16.9256097,14.5356445 C17.1018792,14.7242839 17.190014,14.9685872 17.190014,15.2685547 C17.190014,15.519043 17.1328037,15.7215983 17.0183831,15.8762207 C16.9039625,16.0308431 16.7377434,16.1421712 16.5197259,16.2102051 C16.3017083,16.2782389 16.030346,16.3122559 15.705639,16.3122559 L15.705639,16.3122559 Z M24.8268052,20.1159668 C25.3215969,20.1159668 25.5689927,19.8175456 25.5689927,19.2207031 L25.5689927,19.2207031 L25.5689927,13.8723145 C25.5689927,13.6094564 25.5117825,13.4123128 25.3973619,13.2808838 C25.2829413,13.1494548 25.1267727,13.0837402 24.928856,13.0837402 C24.7371243,13.0837402 24.5848212,13.1494548 24.4719468,13.2808838 C24.3590725,13.4123128 24.3026353,13.6094564 24.3026353,13.8723145 L24.3026353,13.8723145 L24.3026353,17.9172363 L21.6539537,13.9094238 C21.5797349,13.7919108 21.5078355,13.6790365 21.4382554,13.5708008 C21.3686754,13.4625651 21.3006415,13.3744303 21.2341539,13.3063965 C21.1676662,13.2383626 21.0903551,13.1842448 21.0022203,13.144043 C20.9140855,13.1038411 20.8081692,13.0837402 20.6844713,13.0837402 C20.5267564,13.0837402 20.3798651,13.1278076 20.2437974,13.2159424 C20.1077297,13.3040771 20.0103176,13.4177246 19.9515611,13.5568848 C19.9020819,13.6836751 19.8773424,13.8583984 19.8773424,14.0810547 L19.8773424,14.0810547 L19.8773424,19.3273926 C19.8773424,19.5840658 19.9360989,19.7796631 20.0536119,19.9141846 C20.1711249,20.0487061 20.3272935,20.1159668 20.5221177,20.1159668 C20.7107571,20.1159668 20.8653795,20.0494792 20.9859849,19.9165039 C21.1065904,19.7835286 21.1668931,19.5871582 21.1668931,19.3273926 L21.1668931,19.3273926 L21.1668931,15.3427734 L23.7506334,19.3041992 C23.8248521,19.4124349 23.8990709,19.5183512 23.9732896,19.6219482 C24.0475084,19.7255452 24.127912,19.8159993 24.2145006,19.8933105 C24.3010891,19.9706217 24.3938625,20.0270589 24.4928209,20.0626221 C24.5917792,20.0981852 24.7031073,20.1159668 24.8268052,20.1159668 Z" id="VPN" stroke="#F7F7F7" stroke-width="0.5" fill="#F7F7F7" fill-rule="nonzero"></path>
                    </g>
                </g>
            </g>
        </g>
    </g>
</svg>