<?xml version="1.0" encoding="UTF-8"?>
<svg width="44px" height="44px" viewBox="0 0 44 44" version="1.1" xmlns="http://www.w3.org/2000/svg" xmlns:xlink="http://www.w3.org/1999/xlink">
    <title>Content, Edit/Document 2</title>
    <g id="A-WLAN" stroke="none" stroke-width="1" fill="none" fill-rule="evenodd">
        <g id="a02-1设置-标题与结构示意(暗色）" transform="translate(-524.000000, -2267.000000)">
            <g id="Content,-Edit/Document-2" transform="translate(524.000000, 2267.000000)">
                <rect id="矩形" fill="#5F6395" x="0" y="0" width="44" height="44" rx="14"></rect>
                <g id="Group" transform="translate(6.000000, 6.000000)">
                    <polygon id="Path" points="0 0 32.0000001 0 32.0000001 32.0000001 0 32.0000001"></polygon>
                    <path d="M10.6666667,13.3333334 L10.6666667,9.33333337 C10.6666667,6.38800003 13.0546667,4.00000002 16.0000001,4.00000002 C18.9453334,4.00000002 21.3333334,6.38800003 21.3333334,9.33333337 L21.3333334,13.3333334" id="Path" stroke="#F7F7F7" stroke-width="2" stroke-linecap="round" stroke-linejoin="round"></path>
                    <path d="M22.6666667,28.0000001 L9.33333337,28.0000001 C7.86000003,28.0000001 6.66666669,26.8066668 6.66666669,25.3333334 L6.66666669,16.0000001 C6.66666669,14.5266667 7.86000003,13.3333334 9.33333337,13.3333334 L22.6666667,13.3333334 C24.1400001,13.3333334 25.3333334,14.5266667 25.3333334,16.0000001 L25.3333334,25.3333334 C25.3333334,26.8066668 24.1400001,28.0000001 22.6666667,28.0000001 Z" id="Path" stroke="#F7F7F7" stroke-width="2" stroke-linecap="round" stroke-linejoin="round"></path>
                    <circle id="椭圆形" stroke="#F7F7F7" stroke-width="0.5" fill="#F7F7F7" cx="12" cy="21" r="1"></circle>
                    <circle id="椭圆形" stroke="#F7F7F7" stroke-width="0.5" fill="#F7F7F7" cx="16" cy="21" r="1"></circle>
                    <circle id="椭圆形" stroke="#F7F7F7" stroke-width="0.5" fill="#F7F7F7" cx="20" cy="21" r="1"></circle>
                </g>
            </g>
        </g>
    </g>
</svg>