<?xml version="1.0" encoding="UTF-8"?>
<svg width="44px" height="44px" viewBox="0 0 44 44" version="1.1" xmlns="http://www.w3.org/2000/svg" xmlns:xlink="http://www.w3.org/1999/xlink">
    <title>Content, Edit/Document 2</title>
    <defs>
        <filter id="filter-1">
            <feColorMatrix in="SourceGraphic" type="matrix" values="0 0 0 0 0.968627 0 0 0 0 0.968627 0 0 0 0 0.968627 0 0 0 1.000000 0"></feColorMatrix>
        </filter>
    </defs>
    <g id="A-WLAN" stroke="none" stroke-width="1" fill="none" fill-rule="evenodd">
        <g id="a02-1设置-标题与结构示意(暗色）" transform="translate(-152.000000, -2267.000000)">
            <g id="Content,-Edit/Document-2" transform="translate(152.000000, 2267.000000)">
                <rect id="矩形" fill="#F78500" x="0" y="0" width="44" height="44" rx="14"></rect>
                <g filter="url(#filter-1)" id="Group">
                    <g transform="translate(6.000000, 6.000000)">
                        <path d="M26.9333334,8.80000002 L22.5333334,13.2 L24.9333334,25.0666668 C25.0666668,25.4666668 24.9333334,26.0000001 24.5333334,26.2666667 L23.6000001,27.2000001 C22.9333334,27.8666668 21.7333334,27.6000001 21.4666667,26.8000001 L18.0000001,17.8666667 L13.4666667,22.4000001 L13.7333334,25.3333334 C13.7333334,25.7333334 13.6,26.1333334 13.3333334,26.4000001 L11.8666667,27.8666668 L9.06666669,23.2000001 L4.4,20.4000001 L5.73333334,18.6666667 C6.00000001,18.4000001 6.4,18.2666667 6.80000001,18.2666667 L9.73333336,18.5333334 L14.2666667,14 L5.20000001,10.5333334 C4.4,10.1333334 4.13333333,9.06666669 4.8,8.40000002 L5.73333334,7.46666668 C6.00000001,7.20000001 6.53333334,7.06666668 6.93333335,7.06666668 C6.93333335,7.06666668 18.8000001,9.46666669 18.8000001,9.46666669 L23.2000001,5.06666667 C24.2666668,4 25.8666668,4 26.9333334,5.06666667 L26.9333334,5.06666667 C28.0000001,6.13333334 28.0000001,7.73333335 26.9333334,8.80000002 L26.9333334,8.80000002 Z" id="Path" stroke="#F7F7F7" stroke-width="2" stroke-linecap="round" stroke-linejoin="round"></path>
                        <polygon id="Path" points="6.66659616e-08 6.66659616e-08 32.0000002 6.66659616e-08 32.0000002 32.0000002 6.66659616e-08 32.0000002"></polygon>
                    </g>
                </g>
            </g>
        </g>
    </g>
</svg>