<?xml version="1.0" encoding="UTF-8"?>
<svg width="44px" height="44px" viewBox="0 0 44 44" version="1.1" xmlns="http://www.w3.org/2000/svg" xmlns:xlink="http://www.w3.org/1999/xlink">
    <title>icon</title>
    <g id="A-WLAN" stroke="none" stroke-width="1" fill="none" fill-rule="evenodd">
        <g id="a02-1设置-标题与结构示意" transform="translate(-338.000000, -2267.000000)">
            <g id="icon" transform="translate(338.000000, 2267.000000)">
                <rect id="矩形" fill="#C953EB" x="0" y="0" width="44" height="44" rx="14"></rect>
                <g id="Computers,-Devices,-Electronics/Laptop,-Mobile" transform="translate(6.000000, 6.000000)" stroke-linecap="round" stroke-linejoin="round">
                    <g id="Group">
                        <path d="M18.0302667,10.1270534 C19.1596627,11.2564494 19.1596627,13.08756 18.0302667,14.21696 C16.9008707,15.346356 15.06976,15.346356 13.94036,14.21696 C12.810964,13.087564 12.810964,11.2564534 13.94036,10.1270534 C15.069756,8.99765735 16.9008667,8.99765735 18.0302667,10.1270534" id="Path" stroke="#F7F7F7" stroke-width="2.3"></path>
                        <path d="M10.9173334,17.1413334 C9.66533336,15.8573334 8.89066669,14.1066667 8.89066669,12.172 C8.89066669,10.2373334 9.66533336,8.48533335 10.9173334,7.20266668" id="Path" stroke="#F7F7F7" stroke-width="2.3"></path>
                        <path d="M7.71600002,20.3440001 C5.64266667,18.2413334 4.35866667,15.3586667 4.35866667,12.172 C4.35866667,8.98533335 5.64133334,6.10266668 7.71600002,4" id="Path" stroke="#F7F7F7" stroke-width="2.3"></path>
                        <line x1="15.9866667" y1="28.0000001" x2="15.9866667" y2="15.0666667" id="Path" stroke="#F7F7F7" stroke-width="2.3"></line>
                        <path d="M21.0826667,7.20266668 C22.3346667,8.48666669 23.1093334,10.2373334 23.1093334,12.172 C23.1093334,14.1066667 22.3346667,15.8586667 21.0826667,17.1413334" id="Path" stroke="#F7F7F7" stroke-width="2.3"></path>
                        <path d="M24.2840001,4 C26.3573334,6.10266668 27.6413334,8.98533335 27.6413334,12.172 C27.6413334,15.3586667 26.3586668,18.2413334 24.2840001,20.3440001" id="Path" stroke="#F7F7F7" stroke-width="2.3"></path>
                        <polygon id="Path" points="-1.66655809e-08 -1.66655809e-08 32.0000001 -1.66655809e-08 32.0000001 32.0000001 -1.66655809e-08 32.0000001"></polygon>
                    </g>
                </g>
            </g>
        </g>
    </g>
</svg>