<?xml version="1.0" encoding="UTF-8"?>
<svg width="44px" height="44px" viewBox="0 0 44 44" version="1.1" xmlns="http://www.w3.org/2000/svg" xmlns:xlink="http://www.w3.org/1999/xlink">
    <title>Interface, Essential/2d, Square</title>
    <defs>
        <filter id="filter-1">
            <feColorMatrix in="SourceGraphic" type="matrix" values="0 0 0 0 0.556863 0 0 0 0 0.556863 0 0 0 0 0.576471 0 0 0 1.000000 0"></feColorMatrix>
        </filter>
    </defs>
    <g id="M-System&amp;Update" stroke="none" stroke-width="1" fill="none" fill-rule="evenodd">
        <g id="m02设置-system关于本机" transform="translate(-1238.000000, -316.000000)">
            <g id="Interface,-Essential/2d,-Square" transform="translate(1056.000000, 316.000000)" filter="url(#filter-1)">
                <g transform="translate(182.000000, 0.000000)">
                    <g id="Group" transform="translate(-0.000000, -0.000000)">
                        <polygon id="Path" points="0 0 44.0000002 0 44.0000002 44.0000002 0 44.0000002"></polygon>
                        <g stroke-linecap="round" stroke-linejoin="round" transform="translate(7.000000, 8.000000)" id="Path" stroke="#323232" stroke-width="2.75">
                            <path d="M8.3982353,21.3076471 L14.4336765,19.7983824 C14.7183824,19.727206 14.9772059,19.5800001 15.1858824,19.3729413 L28.7579413,5.80088238 C30.0213236,4.53750002 30.0213236,2.48955883 28.7579413,1.22617648 L28.479706,0.94794118 C27.2163236,-0.315441178 25.1683824,-0.315441178 23.9050001,0.94794118 L10.3329412,14.5200001 C10.1258824,14.7270589 9.97867648,14.9875001 9.90750001,15.2722059 L8.3982353,21.3076471"></path>
                            <line x1="21.3426471" y1="3.51029413" x2="26.1955883" y2="8.36323533"></line>
                            <path d="M14.4126471,19.8032354 C14.4352941,19.6317648 14.4644118,19.4619118 14.4644118,19.2839707 C14.4644118,17.0500001 12.6542647,15.239853 10.4202941,15.239853 C10.242353,15.239853 10.0725,15.2705883 9.90102942,15.2916177"></path>
                            <path d="M29.7058824,14.6672059 L29.7058824,24.2194119 C29.7058824,26.0311766 28.2483824,27.5 26.4495589,27.5 L3.84455881,27.5 C2.04573527,27.5 0.588235267,26.0311766 0.588235267,24.2194119 L0.588235267,3.28058825 C0.588235267,1.46882354 2.04573527,0 3.84455881,0 L15.1470589,0"></path>
                        </g>
                    </g>
                </g>
            </g>
        </g>
    </g>
</svg>