<?xml version="1.0" encoding="UTF-8"?>
<svg width="137px" height="151px" viewBox="0 0 137 151" version="1.1" xmlns="http://www.w3.org/2000/svg" xmlns:xlink="http://www.w3.org/1999/xlink">
    <title>编组</title>
    <defs>
        <polygon id="path-1" points="0.1836 0.804 136.453812 0.804 136.453812 149.530904 0.1836 149.530904"></polygon>
    </defs>
    <g id="M-System&amp;Update" stroke="none" stroke-width="1" fill="none" fill-rule="evenodd">
        <g id="m04设置-system更新-检查更新" transform="translate(-1085.000000, -448.000000)">
            <g id="编组-2" transform="translate(968.000000, 448.000000)">
                <g id="编组" transform="translate(117.000000, 0.000000)">
                    <g transform="translate(0.000000, 0.196000)">
                        <mask id="mask-2" fill="white">
                            <use xlink:href="#path-1"></use>
                        </mask>
                        <g id="Clip-2"></g>
                        <path d="M123.9396,103.5521 C125.1586,101.1981 126.6806,98.9111 128.1566,96.4151 C141.5086,73.8271 138.4486,42.5731 121.1196,22.6601 C102.6846,1.4761 70.5996,-4.3539 44.8446,5.3661 C42.4716,6.2621 40.1496,7.2861 37.8916,8.4411 C15.6656,19.8041 0.1806,42.1351 0.1836,67.4541 C0.1856,79.4161 3.5686,92.5481 12.9616,100.6281 C28.9076,114.3441 51.9916,106.7561 64.5196,92.3721 C68.4256,87.8861 71.6986,82.8891 74.7766,77.8131 C81.1936,67.2351 90.8736,50.6241 105.9106,52.9671 C114.6646,54.3301 120.6906,62.3291 120.2496,71.0731 C119.4916,86.0961 105.0936,92.8591 92.2656,95.9871 C76.5336,99.8221 59.7496,98.7591 46.0186,108.7231 C44.9176,109.5221 43.8536,110.3721 42.8286,111.2651 C33.8056,119.1281 24.9716,136.5461 26.4676,148.4211 C26.5176,148.8171 26.6156,149.2701 26.9686,149.4551 C27.5416,149.7531 28.1276,149.1121 28.4956,148.5811 C30.1286,146.2151 32.6116,144.4481 35.3826,143.6771 C39.0656,142.6541 42.9716,143.3731 46.7616,143.8691 C55.6276,145.0291 65.0906,144.0061 73.3456,140.1701 C82.4736,135.9281 88.6576,128.1381 95.1426,120.7321 C94.2386,125.4081 93.4056,130.5621 95.7936,134.6831 C97.1086,136.9541 99.2476,138.6021 101.1166,140.4451 C102.9856,142.2871 104.7006,144.5801 104.7446,147.2041 C104.7546,147.8481 104.7096,148.6051 105.2106,149.0101 C105.8166,149.5011 106.7076,149.0871 107.3616,148.6641 C112.5146,145.3341 118.2406,141.2731 121.2436,135.4941 C124.8366,128.5791 122.2766,121.7851 121.5586,114.4971 C121.1376,110.2251 122.2456,106.8241 123.9396,103.5521" id="Fill-1" fill="#2E6FEF" mask="url(#mask-2)"></path>
                    </g>
                    <path d="M103.6447,74.8116 C106.7287,74.0896 108.6437,71.0026 107.9207,67.9186 C107.1987,64.8336 104.1127,62.9196 101.0277,63.6416 C97.9437,64.3646 96.0287,67.4506 96.7507,70.5356 C97.4737,73.6196 100.5597,75.5346 103.6447,74.8116" id="Fill-3" fill="#2E6FEF"></path>
                </g>
            </g>
        </g>
    </g>
</svg>