<?xml version="1.0" encoding="UTF-8"?>
<svg width="60px" height="60px" viewBox="0 0 60 60" version="1.1" xmlns="http://www.w3.org/2000/svg" xmlns:xlink="http://www.w3.org/1999/xlink">
    <title>-mockplus-</title>
    <defs>
        <filter id="filter-1">
            <feColorMatrix in="SourceGraphic" type="matrix" values="0 0 0 0 0.556863 0 0 0 0 0.556863 0 0 0 0 0.576471 0 0 0 1.000000 0"></feColorMatrix>
        </filter>
    </defs>
    <g id="M-System&amp;Update" stroke="none" stroke-width="1" fill="none" fill-rule="evenodd">
        <g id="m04设置-system更新-检查更新" transform="translate(-1682.000000, -68.000000)">
            <g id="Interface,-Essential/photo-image-square" transform="translate(1682.000000, 68.000000)" filter="url(#filter-1)">
                <g transform="translate(-1.000000, -1.000000)">
                    <g id="Group" transform="translate(0.987500, 0.987500)">
                        <path d="M49.5581406,34.5052712 L49.6804166,34.4747085 C51.3504081,34.0571051 52.521875,32.5565561 52.521875,30.8351426 L52.521875,29.188982 C52.521875,27.4675395 51.3503478,25.9669808 49.6803165,25.5494162 L49.5577655,25.5187534 C48.2845637,25.1997303 47.2377597,24.2964186 46.7358134,23.0836251 C46.2338668,21.8708316 46.3361254,20.4919502 47.01148,19.366466 L47.0629764,19.2806303 C47.9599605,17.8020231 47.7320381,15.9021497 46.5107714,14.6776631 L45.3467616,13.5136283 C44.1295264,12.2963696 42.2400552,12.0637302 40.7639029,12.9493683 L40.6555578,13.0143954 C39.5301653,13.689598 38.1513978,13.7916053 36.938893,13.2893707 C35.7263885,12.7871362 34.8235808,11.7400719 34.5052462,10.4668594 L34.4746835,10.3446335 C34.0570995,8.6746221 32.5565456,7.503125 30.8351176,7.503125 L29.188932,7.503125 C27.4674895,7.503125 25.9669308,8.67465226 25.5493661,10.3446835 L25.5187034,10.4672345 C25.1996988,11.7404496 24.2963948,12.7872731 23.0835986,13.2892354 C21.8708024,13.7911977 20.4919106,13.6889487 19.366416,13.0135951 L19.2805302,12.9620986 C17.8019384,12.0651028 15.9020685,12.2930157 14.6775881,13.5142786 L13.5135783,14.6782884 C12.2962645,15.8953251 12.0635258,17.7846956 12.9490932,19.260772 L13.0131449,19.3675665 C13.6885201,20.4930541 13.7907903,21.8719504 13.2888422,23.084758 C12.786894,24.2975656 11.7400764,25.2008857 10.4668594,25.5199039 L10.3447085,25.5504666 C8.67473064,25.9680057 7.50312495,27.4684727 7.50312495,29.1898574 L7.50312495,30.8362681 C7.50312495,32.5573822 8.67407599,34.0577768 10.3437831,34.4752837 L10.4651337,34.5056464 C11.7385301,34.8239262 12.7858675,35.7266341 13.28852,36.9391444 C13.7911725,38.1516547 13.6897084,39.5306042 13.0149957,40.6564831 L12.9501436,40.7644781 C12.0645395,42.2405739 12.2971238,44.1299658 13.5142786,45.3472118 L14.6784135,46.5114217 C15.8951932,47.7286412 17.7842954,47.9614249 19.2601717,47.0760068 L19.3674414,47.01163 C20.4929256,46.3362335 21.8718298,46.2339451 23.0846498,46.7358844 C24.2974697,47.237824 25.2008032,48.284642 25.5198288,49.5578655 L25.5504166,49.6801664 C25.967907,51.350194 27.4683864,52.521875 29.1898074,52.521875 L30.8361931,52.521875 C32.5573304,52.521875 34.0576983,51.350772 34.4752087,49.6810418 L34.5055463,49.5597413 C34.8237869,48.2863312 35.7264931,47.2389777 36.9390141,46.7363414 C38.1515351,46.2337048 39.5304917,46.3352213 40.6563331,47.0100043 L40.7644531,47.0748564 C42.2405544,47.9604542 44.1299471,47.7278593 45.3471868,46.5106964 L46.5114217,45.3465365 C47.7285991,44.129732 47.9613601,42.2406494 47.0759568,40.7647782 L47.01163,40.6575336 C46.3362885,39.5320198 46.2340644,38.1531145 46.7360575,36.9403201 C47.2380508,35.7275258 48.2849063,34.8242411 49.5581406,34.5052712 Z" id="Path" stroke="#323232" stroke-width="3.75" stroke-linecap="round" stroke-linejoin="round"></path>
                        <circle id="Oval" stroke="#323232" stroke-width="3.75" stroke-linecap="round" stroke-linejoin="round" cx="30.0121499" cy="30.0132753" r="5.19446346"></circle>
                        <polygon id="Path" points="0 0 60.025 0 60.025 60.025 0 60.025"></polygon>
                    </g>
                </g>
            </g>
        </g>
    </g>
</svg>